<svg width="645" height="652" viewBox="0 0 645 652" fill="none" xmlns="http://www.w3.org/2000/svg">
<path d="M315.219 652C488.976 652 629.834 570.675 629.834 470.356C629.834 370.037 488.976 288.712 315.219 288.712C141.462 288.712 0.604004 370.037 0.604004 470.356C0.604004 570.675 141.462 652 315.219 652Z" fill="#FFFEFE"/>
<path d="M483.216 609.097C517.95 609.097 546.107 591.442 546.107 569.664C546.107 547.885 517.95 530.23 483.216 530.23C448.483 530.23 420.325 547.885 420.325 569.664C420.325 591.442 448.483 609.097 483.216 609.097Z" fill="#E6E6E6"/>
<path d="M597.43 428.243L584.383 420.922C584.383 420.922 583.153 397.098 585.027 378.092C587.649 351.383 604.898 319.228 625.486 326.842C646.073 334.456 616.041 361.589 609.378 384.256C602.716 406.923 597.43 428.243 597.43 428.243Z" fill="#37474F"/>
<path d="M591.353 425.447C591.445 425.445 591.535 425.425 591.619 425.387C591.703 425.35 591.778 425.296 591.841 425.23C591.904 425.163 591.952 425.084 591.984 424.998C592.016 424.912 592.031 424.821 592.027 424.729C590.006 365.382 619.555 335.511 619.848 335.218C619.978 335.09 620.052 334.915 620.053 334.732C620.055 334.55 619.984 334.374 619.855 334.244C619.727 334.114 619.553 334.04 619.37 334.039C619.187 334.037 619.012 334.108 618.882 334.237C618.574 334.529 588.6 364.825 590.636 424.788C590.639 424.878 590.661 424.967 590.699 425.049C590.737 425.131 590.791 425.205 590.858 425.266C590.924 425.327 591.002 425.375 591.087 425.406C591.172 425.437 591.263 425.451 591.353 425.447V425.447Z" fill="white"/>
<path d="M604.59 432.373L596.434 427.658C596.434 427.658 595.043 410.818 603.302 390.348C610.491 372.528 628.341 357.753 637.302 360.857C646.264 363.962 646.088 370.331 641.695 376.964C637.302 383.598 610.696 399.587 604.59 432.373Z" fill="#455A64"/>
<path d="M600.359 430.572C600.45 430.574 600.541 430.557 600.626 430.523C600.712 430.49 600.789 430.439 600.855 430.375C600.92 430.311 600.972 430.235 601.008 430.15C601.043 430.066 601.061 429.975 601.061 429.883C600.9 392.354 636.131 366.919 636.497 366.729C636.644 366.62 636.744 366.459 636.774 366.278C636.804 366.098 636.762 365.913 636.658 365.762C636.606 365.688 636.539 365.625 636.462 365.576C636.384 365.528 636.298 365.495 636.209 365.48C636.119 365.465 636.027 365.468 635.938 365.489C635.849 365.51 635.765 365.548 635.692 365.601C635.326 365.85 599.509 391.636 599.67 429.883C599.67 429.974 599.688 430.063 599.723 430.147C599.757 430.23 599.808 430.306 599.872 430.37C599.936 430.434 600.012 430.485 600.095 430.519C600.179 430.554 600.268 430.572 600.359 430.572V430.572Z" fill="white"/>
<path d="M363.057 318.964L354.579 314.117C354.204 313.836 353.908 313.464 353.718 313.036C353.529 312.608 353.452 312.138 353.496 311.672V255.18C353.58 253.665 354.087 252.204 354.96 250.963L363.394 255.824C362.55 257.063 362.073 258.514 362.018 260.012V316.548C361.964 317.007 362.032 317.471 362.215 317.895C362.397 318.319 362.688 318.688 363.057 318.964V318.964Z" fill="#6563FF"/>
<path opacity="0.55" d="M363.057 318.964L354.579 314.117C354.204 313.836 353.908 313.464 353.718 313.036C353.529 312.608 353.452 312.138 353.496 311.672V255.18C353.58 253.665 354.087 252.204 354.96 250.963L363.394 255.824C362.55 257.063 362.073 258.514 362.018 260.012V316.548C361.964 317.007 362.032 317.471 362.215 317.895C362.397 318.319 362.688 318.688 363.057 318.964V318.964Z" fill="white"/>
<path d="M365.751 253.364L484.036 185.085C486.159 183.855 487.872 184.851 487.872 187.296V243.905C487.802 245.235 487.418 246.53 486.751 247.683C486.084 248.836 485.154 249.814 484.036 250.538L365.751 318.715C363.643 319.931 361.915 318.935 361.915 316.49V260.012C361.99 258.681 362.376 257.387 363.042 256.232C363.709 255.077 364.637 254.095 365.751 253.364V253.364Z" fill="#6563FF"/>
<path opacity="0.7" d="M365.751 253.364L484.036 185.085C486.159 183.855 487.872 184.851 487.872 187.296V243.905C487.802 245.235 487.418 246.53 486.751 247.683C486.084 248.836 485.154 249.814 484.036 250.538L365.751 318.715C363.643 319.931 361.915 318.935 361.915 316.49V260.012C361.99 258.681 362.376 257.387 363.042 256.232C363.709 255.077 364.637 254.095 365.751 253.364V253.364Z" fill="white"/>
<path d="M478.267 179.975L486.613 184.734C486.189 184.576 485.732 184.524 485.283 184.583C484.834 184.641 484.406 184.809 484.036 185.07L365.752 253.364C364.752 253.983 363.91 254.825 363.292 255.824L354.857 250.963C355.459 249.973 356.287 249.14 357.273 248.532L475.558 180.238C476.074 179.92 476.665 179.743 477.271 179.726C477.619 179.723 477.961 179.809 478.267 179.975V179.975Z" fill="#6563FF"/>
<path opacity="0.85" d="M478.267 179.975L486.613 184.734C486.189 184.576 485.732 184.524 485.283 184.583C484.834 184.641 484.406 184.809 484.036 185.07L365.752 253.364C364.752 253.983 363.91 254.825 363.292 255.824L354.857 250.963C355.459 249.973 356.287 249.14 357.273 248.532L475.558 180.238C476.074 179.92 476.665 179.743 477.271 179.726C477.619 179.723 477.961 179.809 478.267 179.975V179.975Z" fill="white"/>
<path d="M375.006 258.592L474.782 200.87C475.807 200.284 476.627 200.694 476.627 201.793C476.582 202.412 476.392 203.012 476.071 203.544C475.751 204.076 475.309 204.524 474.782 204.853L375.006 262.545C373.996 263.131 373.161 262.721 373.161 261.623C373.211 261.009 373.404 260.415 373.724 259.889C374.045 259.363 374.483 258.918 375.006 258.592Z" fill="#6563FF"/>
<path d="M375.006 298.977L474.782 241.284C475.807 240.698 476.627 241.108 476.627 242.221C476.582 242.839 476.392 243.437 476.071 243.966C475.751 244.496 475.309 244.942 474.782 245.267L375.006 302.901C373.996 303.487 373.161 303.062 373.161 301.964C373.22 301.358 373.417 300.774 373.736 300.256C374.056 299.738 374.491 299.301 375.006 298.977V298.977Z" fill="#6563FF"/>
<path d="M375.006 278.755L474.782 221.048C475.807 220.462 476.627 220.887 476.627 221.985C476.58 222.604 476.389 223.203 476.068 223.735C475.748 224.266 475.307 224.715 474.782 225.045L375.006 282.738C373.996 283.324 373.161 282.899 373.161 281.801C373.209 281.184 373.401 280.587 373.721 280.058C374.042 279.529 374.482 279.083 375.006 278.755V278.755Z" fill="#6563FF"/>
<path d="M375.006 288.829L474.782 231.137C475.807 230.551 476.627 230.961 476.627 232.059C476.582 232.679 476.392 233.279 476.071 233.811C475.751 234.342 475.309 234.791 474.782 235.119L375.006 292.812C373.996 293.398 373.161 292.988 373.161 291.89C373.207 291.27 373.397 290.671 373.718 290.139C374.038 289.607 374.48 289.159 375.006 288.829V288.829Z" fill="#6563FF"/>
<path d="M375.006 268.666L474.782 210.974C475.807 210.388 476.627 210.798 476.627 211.911C476.582 212.528 476.392 213.126 476.071 213.656C475.751 214.185 475.309 214.631 474.782 214.956L375.006 272.62C373.996 273.205 373.161 272.781 373.161 271.683C373.215 271.072 373.41 270.482 373.73 269.958C374.05 269.435 374.487 268.993 375.006 268.666V268.666Z" fill="#6563FF"/>
<path d="M362.413 232.747L354.359 228.164C353.984 227.884 353.687 227.512 353.497 227.084C353.307 226.655 353.231 226.185 353.276 225.719V75.4544C353.354 73.9384 353.862 72.4758 354.74 71.2373L362.589 75.7766C361.79 76.9888 361.339 78.3967 361.286 79.8473V230.273C361.231 230.749 361.307 231.231 361.505 231.667C361.704 232.103 362.018 232.476 362.413 232.747V232.747Z" fill="#263238"/>
<path d="M485.412 4.40755C484.702 4.34424 483.991 4.51942 483.392 4.9054L365.107 73.1994C364.072 73.8472 363.204 74.7301 362.574 75.7766L354.711 71.2373C355.322 70.2549 356.148 69.4239 357.127 68.8066L475.411 0.527208C475.925 0.200626 476.516 0.0185168 477.125 6.63363e-05C477.472 -0.00273011 477.815 0.0829305 478.12 0.248994L485.412 4.40755Z" fill="#37474F"/>
<path d="M365.107 73.1994L483.392 4.92006C485.515 3.69007 487.228 4.68578 487.228 7.13112V157.688C487.158 159.018 486.774 160.313 486.107 161.466C485.44 162.619 484.51 163.597 483.392 164.322L365.122 232.498C362.999 233.714 361.271 232.718 361.271 230.273V79.8473C361.346 78.5164 361.732 77.2216 362.398 76.067C363.065 74.9124 363.992 73.9303 365.107 73.1994V73.1994Z" fill="#455A64"/>
<path d="M371.667 78.1047L477.828 16.81C479.731 15.7118 481.269 16.605 481.269 18.8014V154.013C481.204 155.207 480.859 156.369 480.261 157.405C479.663 158.44 478.83 159.32 477.828 159.973L371.667 221.15C369.764 222.248 368.226 221.355 368.226 219.159V84.0644C368.29 82.8703 368.636 81.7083 369.234 80.6727C369.831 79.6372 370.665 78.7573 371.667 78.1047Z" fill="#F0F0F0"/>
<path d="M459.919 133.513C458.055 130.256 455.093 127.767 451.563 126.493C448.033 125.219 444.164 125.242 440.649 126.558C440.649 126.558 440.034 137.877 445.833 154.13C445.833 154.13 471.092 190.942 476.129 194.369L483.113 171.204C483.113 171.204 464.678 140.966 459.919 133.513Z" fill="#B16668"/>
<path d="M398.024 141.376C392.065 143.646 392.958 150.162 393.148 155.946C393.251 159.504 393.836 165.537 394.217 173.81L395.916 200.445L395.535 258.226C414.907 264.83 439.551 259.017 460.227 236.042C460.227 236.042 459.07 162.096 459.07 149.957C459.07 149.401 459.07 148.859 459.07 148.302C458.338 131.697 450.094 124.596 440.679 126.587C437.662 127.231 431.132 129.311 426.812 130.658L414.951 134.494C414.951 134.494 403.969 139.107 398.024 141.376Z" fill="#6563FF"/>
<path opacity="0.2" d="M398.024 141.376C392.065 143.646 392.958 150.162 393.148 155.946C393.251 159.504 393.836 165.537 394.217 173.81L395.916 200.445L395.535 258.226C414.907 264.83 439.551 259.017 460.227 236.042C460.227 236.042 459.07 162.096 459.07 149.957C459.07 149.401 459.07 148.859 459.07 148.302C458.338 131.697 450.094 124.596 440.679 126.587C437.662 127.231 431.132 129.311 426.812 130.658L414.951 134.494C414.951 134.494 403.969 139.107 398.024 141.376Z" fill="black"/>
<path d="M442.89 83.8448C442.89 78.5002 443.724 71.4863 449.157 68.9238C451.91 67.6206 455.834 67.0788 458.455 68.7773C461.076 70.4759 462.745 72.8773 462.277 76.2159C461.819 78.7085 460.571 80.9878 458.719 82.7173C458.398 82.9639 458.159 83.3004 458.03 83.6837C457.981 83.9927 458.006 84.3088 458.104 84.6062C458.806 87.9008 458.762 91.6787 456.522 94.1972C455.751 95.0539 454.777 95.7027 453.69 96.084C452.602 96.4653 451.436 96.5667 450.299 96.379C449.021 96.077 447.83 95.4873 446.815 94.655C445.8 93.8227 444.988 92.7697 444.442 91.5762C443.326 89.1563 442.794 86.5079 442.89 83.8448V83.8448Z" fill="#263238"/>
<path d="M407.073 102.617C407.073 102.617 410.09 118.153 411.291 120.51C411.653 121.197 412.182 121.78 412.829 122.208C413.477 122.635 414.222 122.893 414.995 122.956L414.79 111.534L407.073 102.617Z" fill="#263238"/>
<path d="M410.778 78.2073C410.778 78.2073 407.981 78.8955 407.849 78.9687C406.56 79.4498 405.401 80.2273 404.467 81.2383C403.741 82.0097 403.213 82.9454 402.927 83.9653C402.642 84.9853 402.607 86.0593 402.827 87.0955C403.297 88.6049 404.149 89.967 405.302 91.049C404.415 91.9536 403.722 93.0299 403.266 94.2119C402.819 95.4063 402.819 96.7221 403.266 97.9165C403.578 98.6116 403.982 99.2616 404.467 99.8493C405.536 101.211 406.795 102.544 408.64 102.339C409.987 102.192 411.349 101.973 412.696 101.797L410.778 78.2073Z" fill="#263238"/>
<path d="M414.395 101.401C413.267 102.5 411.642 100.406 410.236 99.0879C408.831 97.7701 404.262 96.6865 401.978 102.851C399.694 109.016 403.999 115.444 407.601 115.795C413.809 116.381 414.746 111.534 414.746 111.534L414.951 137.042C421.731 151.231 449.669 145.828 435.451 131.097V123.263C438.299 123.015 441.106 122.425 443.812 121.506C448.381 119.471 451.266 114.536 452.598 108.459C454.824 98.6925 454.633 92.9086 453.887 75.2934C453.374 63.1984 431.805 59.4645 421.057 70.1537C410.31 80.843 414.395 101.401 414.395 101.401Z" fill="#B16668"/>
<path d="M410.207 99.0879C409.475 98.5168 409.548 96.8476 409.504 96.0422C409.429 94.0895 409.463 92.134 409.607 90.1851C409.797 87.1101 410.646 83.8887 409.943 80.8723C409.595 79.7758 409.49 78.6164 409.636 77.4751C409.719 76.9038 409.983 76.374 410.389 75.9631C410.794 75.5521 411.321 75.2816 411.891 75.1909C411.217 73.429 411.031 71.5181 411.353 69.6595C411.674 67.8008 412.491 66.0634 413.718 64.6302C414.944 63.197 416.534 62.1212 418.321 61.5161C420.107 60.9111 422.024 60.7992 423.869 61.1923C424.363 59.505 425.305 57.9828 426.594 56.7867C427.882 55.5907 429.471 54.7654 431.19 54.3981C433.159 53.9826 435.2 54.0529 437.135 54.6031C438.121 54.8698 439.037 55.3505 439.816 56.011C440.596 56.6715 441.22 57.4957 441.645 58.4249C442.86 55.8184 447.063 53.4756 450.899 53.9149C454.121 54.2956 457.43 56.287 458.528 58.8934C459.277 60.586 459.664 62.4165 459.664 64.2673C459.664 66.1182 459.277 67.9486 458.528 69.6412C457.928 70.8178 457.081 71.8509 456.045 72.6698C455.009 73.4886 453.808 74.0739 452.525 74.3855C449.909 75.0185 447.149 74.5866 444.852 73.1848C444.846 74.5695 444.394 75.9154 443.563 77.0231C442.733 78.1308 441.567 78.9414 440.239 79.3348C438.394 79.9308 436.423 80.0268 434.529 79.613C432.748 78.9323 431.128 77.8903 429.77 76.5526C429.651 77.8037 429.191 78.9981 428.44 80.0053C427.688 81.0125 426.674 81.7936 425.509 82.2633C424.338 82.7025 423.086 82.8816 421.84 82.788C420.593 82.6944 419.382 82.3305 418.29 81.7215C418.834 83.4635 419.14 85.2713 419.198 87.0955C419.279 88.0434 419.134 88.9971 418.773 89.8776C418.577 90.3064 418.265 90.6713 417.871 90.9303C417.477 91.1894 417.019 91.332 416.547 91.3419C417.603 94.0095 417.981 96.8975 417.646 99.7468C417.613 100.886 417.165 101.975 416.386 102.807C413.853 105.15 411.774 100.318 410.207 99.0879Z" fill="#263238"/>
<path d="M410.793 79.6569L403.911 77.2408C404.892 74.7076 407.22 73.1994 409.123 73.8584C411.027 74.5173 411.759 77.1237 410.793 79.6569Z" fill="#263238"/>
<path d="M435.378 123.263C435.378 123.263 425.128 123.615 421.614 122.385C419.476 121.639 417.708 120.097 416.679 118.08C417.181 120.213 418.14 122.211 419.491 123.937C422.097 127.085 435.378 126.367 435.378 126.367V123.263Z" fill="#9A4A4D"/>
<path d="M432.742 95.5736C432.74 96.2126 432.542 96.8355 432.176 97.3589C431.809 97.8823 431.292 98.2813 430.692 98.5022C429.565 98.8097 428.642 97.9458 428.642 96.5986C428.647 95.9602 428.845 95.3382 429.211 94.8152C429.577 94.2921 430.094 93.8928 430.692 93.6701C431.82 93.3626 432.742 94.2265 432.742 95.5736Z" fill="#263238"/>
<path d="M431.19 88.8672L426.212 92.0301C425.995 91.2772 426.02 90.4755 426.283 89.7375C426.545 88.9995 427.033 88.3623 427.676 87.9154C427.958 87.7084 428.283 87.5676 428.627 87.5035C428.971 87.4394 429.325 87.4536 429.662 87.545C430 87.6365 430.313 87.8028 430.577 88.0317C430.842 88.2606 431.051 88.5462 431.19 88.8672Z" fill="#263238"/>
<path d="M434.456 109.382L439.112 110.143C438.981 110.885 438.591 111.557 438.012 112.039C437.433 112.521 436.703 112.784 435.949 112.779C434.661 112.574 433.987 111.051 434.456 109.382Z" fill="#9A4A4D"/>
<path d="M451.251 87.8862L447.268 85.4115C448.073 83.874 449.625 83.1858 450.724 83.8594C451.286 84.3519 451.65 85.0323 451.747 85.7734C451.844 86.5145 451.667 87.2656 451.251 87.8862V87.8862Z" fill="#263238"/>
<path d="M450.211 91.459C450.21 92.0962 450.014 92.7179 449.651 93.2411C449.287 93.7643 448.773 94.1643 448.176 94.3876C447.048 94.6951 446.126 93.8311 446.126 92.484C446.132 91.8461 446.332 91.225 446.697 90.7023C447.063 90.1797 447.579 89.7799 448.176 89.5554C449.303 89.2479 450.211 90.0972 450.211 91.459Z" fill="#263238"/>
<path d="M439.112 92.0301L439.346 106.263L446.668 102.441L439.112 92.0301Z" fill="#9A4A4D"/>
<path d="M394.32 263.248C394.653 267.092 395.764 270.829 397.585 274.23C399.603 277.395 402.069 280.251 404.906 282.709C405.209 282.941 405.43 283.264 405.536 283.631C405.639 284.393 404.775 284.92 404.072 285.095C402.471 285.333 400.837 285.013 399.445 284.188C398.401 283.578 397.441 282.834 396.589 281.976C396.296 281.713 394.481 280.424 394.481 280.131C395.056 283.215 396.134 286.184 397.673 288.917C399.187 291.27 400.551 293.715 401.758 296.239C402.446 297.893 402.769 300.031 401.495 301.29C400.956 301.746 400.32 302.072 399.635 302.242C397.316 302.896 394.865 302.923 392.532 302.321C390.199 301.719 388.067 300.509 386.354 298.816C384.852 297.183 383.599 295.337 382.635 293.339C382.049 292.24 381.521 291.111 381.053 289.957C380.274 287.944 379.671 285.866 379.252 283.748C378.125 278.667 377.7 273.498 376.924 268.403C374.619 252.174 373.698 235.778 374.171 219.393C376.807 165.127 380.511 146.78 398.054 141.376C403.017 145.066 405.243 160.866 400.016 174.952C397.421 190.687 395.72 206.556 394.92 222.483C394.598 230.009 393.383 245.179 393.734 252.706C393.895 256.073 393.895 259.441 394.32 263.248Z" fill="#B16668"/>
<path d="M42.2775 504.049L33.7993 499.202C33.4247 498.921 33.1283 498.549 32.9386 498.121C32.7489 497.693 32.6722 497.223 32.7157 496.757V440.28C32.7998 438.765 33.3071 437.304 34.18 436.063L42.4678 440.924C41.6235 442.162 41.1463 443.614 41.0914 445.112V501.575C41.0428 502.056 41.1278 502.542 41.337 502.978C41.5462 503.415 41.8716 503.785 42.2775 504.049V504.049Z" fill="#6563FF"/>
<path opacity="0.55" d="M42.2775 504.049L33.7993 499.202C33.4247 498.921 33.1283 498.549 32.9386 498.121C32.7489 497.693 32.6722 497.223 32.7157 496.757V440.28C32.7998 438.765 33.3071 437.304 34.18 436.063L42.4678 440.924C41.6235 442.162 41.1463 443.614 41.0914 445.112V501.575C41.0428 502.056 41.1278 502.542 41.337 502.978C41.5462 503.415 41.8716 503.785 42.2775 504.049V504.049Z" fill="white"/>
<path d="M44.9715 438.464L163.256 370.17C165.365 368.94 167.093 369.936 167.093 372.381V428.99C167.017 430.323 166.629 431.619 165.96 432.774C165.291 433.928 164.36 434.91 163.241 435.638L44.9715 503.8C42.8483 505.016 41.1351 504.02 41.1351 501.575V445.097C41.2054 443.767 41.5897 442.473 42.2566 441.32C42.9234 440.167 43.8538 439.188 44.9715 438.464V438.464Z" fill="#6563FF"/>
<path opacity="0.7" d="M44.9715 438.464L163.256 370.17C165.365 368.94 167.093 369.936 167.093 372.381V428.99C167.017 430.323 166.629 431.619 165.96 432.774C165.291 433.928 164.36 434.91 163.241 435.638L44.9715 503.8C42.8483 505.016 41.1351 504.02 41.1351 501.575V445.097C41.2054 443.767 41.5897 442.473 42.2566 441.32C42.9234 440.167 43.8538 439.188 44.9715 438.464V438.464Z" fill="white"/>
<path d="M157.487 365.074L165.833 369.833C165.409 369.675 164.952 369.624 164.503 369.682C164.054 369.741 163.626 369.908 163.256 370.17L44.9716 438.464C43.9561 439.077 43.0985 439.92 42.4677 440.924L34.0334 436.063C34.6548 435.089 35.4978 434.276 36.4934 433.691L154.778 365.396C155.294 365.078 155.885 364.902 156.491 364.884C156.834 364.863 157.176 364.929 157.487 365.074V365.074Z" fill="#6563FF"/>
<path opacity="0.85" d="M157.487 365.074L165.833 369.833C165.409 369.675 164.952 369.624 164.503 369.682C164.054 369.741 163.626 369.908 163.256 370.17L44.9716 438.464C43.9561 439.077 43.0985 439.92 42.4677 440.924L34.0334 436.063C34.6548 435.089 35.4978 434.276 36.4934 433.691L154.778 365.396C155.294 365.078 155.885 364.902 156.491 364.884C156.834 364.863 157.176 364.929 157.487 365.074V365.074Z" fill="white"/>
<path d="M54.182 443.677L153.958 385.984C154.968 385.399 155.803 385.809 155.803 386.921C155.755 387.538 155.563 388.135 155.243 388.664C154.922 389.193 154.482 389.639 153.958 389.967L54.182 447.66C53.157 448.245 52.337 447.835 52.337 446.737C52.3815 446.118 52.5719 445.518 52.8925 444.986C53.2132 444.454 53.655 444.005 54.182 443.677V443.677Z" fill="#6563FF"/>
<path d="M54.182 484.003L154.002 426.369C155.012 425.783 155.847 426.208 155.847 427.306C155.799 427.923 155.607 428.52 155.287 429.049C154.966 429.578 154.526 430.024 154.002 430.352L54.182 487.986C53.157 488.572 52.337 488.147 52.337 487.049C52.3815 486.431 52.5719 485.833 52.8927 485.304C53.2134 484.774 53.6553 484.329 54.182 484.003V484.003Z" fill="#6563FF"/>
<path d="M54.182 463.84L153.958 406.147C154.968 405.562 155.803 405.972 155.803 407.07C155.755 407.688 155.563 408.287 155.243 408.819C154.923 409.35 154.483 409.799 153.958 410.13L54.182 467.823C53.157 468.409 52.337 467.999 52.337 466.9C52.3792 466.28 52.5686 465.679 52.8894 465.147C53.2103 464.615 53.6534 464.167 54.182 463.84V463.84Z" fill="#6563FF"/>
<path d="M54.182 473.914L153.958 416.222C154.968 415.636 155.803 416.046 155.803 417.144C155.757 417.763 155.567 418.363 155.246 418.895C154.926 419.426 154.484 419.875 153.958 420.205L54.182 477.897C53.157 478.483 52.337 478.073 52.337 476.975C52.3815 476.355 52.5719 475.755 52.8925 475.223C53.2132 474.691 53.655 474.243 54.182 473.914V473.914Z" fill="#6563FF"/>
<path d="M54.182 453.766L153.958 396.059C154.968 395.473 155.803 395.897 155.803 396.996C155.755 397.612 155.563 398.209 155.243 398.738C154.922 399.267 154.482 399.713 153.958 400.041L54.182 457.749C53.157 458.334 52.337 457.91 52.337 456.812C52.3815 456.194 52.5719 455.596 52.8927 455.066C53.2134 454.537 53.6553 454.091 54.182 453.766Z" fill="#6563FF"/>
<path d="M41.7796 417.583L33.6821 413.059C33.3064 412.779 33.0093 412.407 32.8195 411.978C32.6296 411.55 32.5535 411.08 32.5985 410.613V260.349C32.6771 258.833 33.1849 257.37 34.0628 256.132L41.9113 260.671C41.1129 261.883 40.6621 263.291 40.6081 264.742V415.167C40.569 415.638 40.657 416.111 40.8631 416.536C41.0692 416.961 41.3857 417.323 41.7796 417.583V417.583Z" fill="#263238"/>
<path d="M164.779 189.302C164.069 189.239 163.358 189.414 162.758 189.8L44.4739 258.094C43.4385 258.742 42.5705 259.625 41.9407 260.671L34.0775 256.132C34.6889 255.15 35.5149 254.319 36.4936 253.701L154.778 185.422C155.291 185.095 155.883 184.913 156.491 184.895C156.839 184.892 157.182 184.978 157.487 185.144L164.779 189.302Z" fill="#37474F"/>
<path d="M44.4739 258.079L162.758 189.8C164.867 188.57 166.595 189.566 166.595 192.011V342.568C166.52 343.899 166.134 345.194 165.467 346.349C164.801 347.503 163.873 348.485 162.758 349.216L44.4739 417.378C42.3507 418.594 40.6375 417.613 40.6375 415.167V264.727C40.7101 263.396 41.0953 262.1 41.7618 260.945C42.4283 259.79 43.3574 258.809 44.4739 258.079Z" fill="#455A64"/>
<path d="M50.5359 262.75L156.682 201.456C158.585 200.358 160.123 201.251 160.123 203.447V338.512C160.061 339.707 159.717 340.87 159.118 341.906C158.52 342.942 157.685 343.821 156.682 344.472L50.5359 405.723C48.6323 406.821 47.0948 405.928 47.0948 403.731V268.71C47.1591 267.516 47.5042 266.354 48.1021 265.318C48.7001 264.283 49.5339 263.403 50.5359 262.75V262.75Z" fill="#F0F0F0"/>
<path d="M135.772 319.111C127.484 308.348 113.807 309.871 113.807 309.871C115.013 319.227 117.288 328.415 120.587 337.253C120.587 337.253 145.861 374.05 150.898 377.491L157.882 354.312C157.882 354.312 141.146 326.11 135.772 319.111Z" fill="#FFBDA7"/>
<path d="M110.85 310.398C114.431 309.248 118.191 308.752 121.949 308.934C127.908 309.315 135.245 316.065 139.623 323.093C145.48 332.494 149.375 339.201 149.375 339.201C149.375 339.201 147.427 350.241 132.36 355L118.42 336.814L110.85 310.398Z" fill="#6563FF"/>
<path opacity="0.5" d="M110.85 310.398C114.431 309.248 118.191 308.752 121.949 308.934C127.908 309.315 135.245 316.065 139.623 323.093C145.48 332.494 149.375 339.201 149.375 339.201C149.375 339.201 147.427 350.241 132.36 355L118.42 336.814L110.85 310.398Z" fill="black"/>
<path d="M72.3977 353.536L70.4502 384.286L72.017 441.817C91.3894 448.421 116.033 442.608 136.709 419.633C136.709 419.633 135.86 343.227 133.165 330.181C129.929 314.469 122.212 305.874 106.574 311.467L91.243 317.588L75.4727 323.87C75.4727 323.87 72.3977 347.591 72.3977 353.536Z" fill="#6563FF"/>
<path opacity="0.4" d="M72.3977 353.536L70.4502 384.286L72.017 441.817C91.3894 448.421 116.033 442.608 136.709 419.633C136.709 419.633 135.86 343.227 133.165 330.181C129.929 314.469 122.212 305.874 106.574 311.467L91.243 317.588L75.4727 323.87C75.4727 323.87 72.3977 347.591 72.3977 353.536Z" fill="black"/>
<path d="M92.634 267.788C92.634 280.82 101.786 288.932 113.134 285.901C124.482 282.87 133.634 269.867 133.634 256.835C133.634 243.803 123.896 243.803 112.607 246.834C101.317 249.865 92.634 254.756 92.634 267.788Z" fill="#263238"/>
<path d="M89.3248 295.053L85.8984 291.084L87.2894 285.374L84.3609 262.809C83.1702 262.61 81.9471 262.799 80.8717 263.347C79.7962 263.895 78.9251 264.774 78.3866 265.855C73.4813 274.758 84.9173 302.125 85.8984 304.029C86.2596 304.717 86.7883 305.303 87.4358 305.733C88.0833 306.163 88.8286 306.423 89.603 306.489L89.3248 295.053Z" fill="#263238"/>
<path d="M88.9293 284.92C87.8018 286.018 86.1765 283.924 84.7708 282.606C83.3651 281.288 78.7965 280.205 76.5122 286.369C74.228 292.534 78.5183 298.977 82.1204 299.314C88.3436 299.899 89.2661 295.053 89.2661 295.053L89.4857 321.556C99.8968 332.611 123.882 327.208 109.986 314.689V306.825C112.837 306.578 115.648 305.993 118.361 305.083C122.93 303.033 125.8 298.113 127.147 292.021C129.373 282.269 130.222 274.64 128.333 257.113C126.254 237.902 106.369 243.027 95.5918 253.716C84.8147 264.405 88.9293 284.92 88.9293 284.92Z" fill="#FFBDA7"/>
<path d="M88.7243 286.779C86.8208 286.281 85.5761 283.236 84.7708 282.606C83.9654 281.976 84.0972 280.366 84.0679 279.56C84.137 277.582 84.0881 275.602 83.9215 273.63C83.5141 271.555 83.2888 269.448 83.2479 267.334C83.2479 262.941 83.3504 256.82 85.1515 252.764C88.4754 245.282 93.659 243.393 99.9114 241.387C104.714 239.922 109.971 240.069 114.686 238.282C118.543 236.555 122.074 234.177 125.126 231.254C126.283 230.273 127.894 229.248 129.168 230.053C129.771 230.523 130.186 231.193 130.339 231.942C131.037 234.195 131.252 236.57 130.969 238.912C131.514 238.952 132.061 238.867 132.568 238.664C133.076 238.461 133.53 238.145 133.897 237.741C134.117 237.477 134.351 237.169 134.688 237.169C135.025 237.169 135.391 237.711 135.464 238.165C135.74 240.131 135.565 242.134 134.952 244.022C132.257 253.452 122.886 259.163 113.324 261.359C107.972 262.824 102.353 263.025 96.9097 261.945C96.2555 261.806 95.5729 261.927 95.0061 262.282C94.5202 262.651 94.1618 263.163 93.9811 263.746C92.9415 266.426 93.9811 271.902 93.7175 275.592C93.3222 280.088 92.634 283.895 90.9354 286.018C90.7041 286.373 90.361 286.64 89.9606 286.778C89.5601 286.916 89.1251 286.916 88.7243 286.779V286.779Z" fill="#263238"/>
<path d="M83.7605 263.19L76.8931 260.759C77.8595 258.226 80.1877 256.718 82.0913 257.391C83.9948 258.065 84.7416 260.642 83.7605 263.19Z" fill="#263238"/>
<path d="M109.927 306.825C109.927 306.825 99.6772 307.191 96.1775 305.947C94.0394 305.201 92.2716 303.659 91.2429 301.642C91.743 303.773 92.697 305.77 94.0397 307.499C96.6461 310.647 109.927 309.93 109.927 309.93V306.825Z" fill="#F0997A"/>
<path d="M107.482 279.004C107.481 279.641 107.285 280.263 106.921 280.786C106.558 281.309 106.043 281.709 105.446 281.933C104.304 282.225 103.396 281.376 103.396 280.014C103.401 279.376 103.599 278.754 103.965 278.231C104.332 277.708 104.848 277.308 105.446 277.086C106.574 276.793 107.482 277.642 107.482 279.004Z" fill="#263238"/>
<path d="M104.202 270.116L99.8089 274.069C99.5218 273.335 99.4662 272.531 99.6494 271.764C99.8326 270.997 100.246 270.304 100.834 269.779C101.043 269.514 101.315 269.305 101.625 269.173C101.936 269.041 102.274 268.99 102.61 269.023C102.946 269.057 103.268 269.174 103.546 269.365C103.824 269.556 104.05 269.815 104.202 270.116V270.116Z" fill="#263238"/>
<path d="M109.005 292.827L113.676 293.603C113.535 294.342 113.141 295.009 112.561 295.488C111.98 295.966 111.251 296.227 110.498 296.224C109.224 296.048 108.551 294.496 109.005 292.827Z" fill="#F0997A"/>
<path d="M126.225 266.279L122.242 263.834C123.047 262.37 124.599 261.608 125.697 262.37C126.235 262.853 126.583 263.512 126.679 264.228C126.776 264.944 126.615 265.671 126.225 266.279V266.279Z" fill="#263238"/>
<path d="M125.361 273.528C125.356 274.166 125.158 274.788 124.792 275.311C124.426 275.834 123.909 276.233 123.311 276.456C122.183 276.764 121.275 275.9 121.275 274.553C121.264 273.903 121.453 273.267 121.817 272.729C122.182 272.192 122.703 271.78 123.311 271.551C124.468 271.317 125.361 272.166 125.361 273.528Z" fill="#263238"/>
<path d="M114.379 273.645L114.613 287.892L121.934 284.056L114.379 273.645Z" fill="#F0997A"/>
<path d="M48.1491 413C54.5919 344.267 63.3483 327.472 75.9704 325.744C80.9197 329.434 82.4865 345.219 78.9868 361.589C78.9868 361.589 71.8411 398.65 71.2115 411.99C70.6551 423.704 67.419 438.054 68.854 447.279C69.1176 448.904 69.9669 453.649 70.8454 454.747C73.774 458.349 73.0565 460.018 75.2383 462.83C76.9954 465.026 79.9093 466.344 79.6311 467.223C79.2065 468.277 77.2883 469.639 74.2426 468.233C72.4713 467.283 70.9623 465.909 69.8497 464.235C69.8497 464.235 70.1719 468.628 74.2426 475.305C78.0643 481.704 79.1918 488.381 68.5465 487.151C62.5283 486.463 58.1062 484.765 54.2112 469.243C53.1276 464.953 52.2491 457.163 51.3998 451.555C48.8959 435.374 47.2559 422.46 48.1491 413Z" fill="#FFBDA7"/>
<path d="M76.1462 323.65C76.1462 323.65 63.3923 326.154 59.8341 338.014C56.9056 348.03 54.4749 357.05 51.312 378.077C54.6332 381.115 58.7535 383.139 63.1872 383.912C67.621 384.685 72.1834 384.175 76.3365 382.441C76.3365 382.441 83.0722 355.015 83.7458 342.686C84.478 329.185 76.1462 323.65 76.1462 323.65Z" fill="#6563FF"/>
<path opacity="0.5" d="M76.1462 323.65C76.1462 323.65 63.3923 326.154 59.8341 338.014C56.9056 348.03 54.4749 357.05 51.312 378.077C54.6332 381.115 58.7535 383.139 63.1872 383.912C67.621 384.685 72.1834 384.175 76.3365 382.441C76.3365 382.441 83.0722 355.015 83.7458 342.686C84.478 329.185 76.1462 323.65 76.1462 323.65Z" fill="black"/>
<path d="M202.807 410.101L194.328 405.254C193.956 404.971 193.661 404.599 193.472 404.171C193.282 403.744 193.204 403.275 193.245 402.809V346.332C193.329 344.817 193.836 343.356 194.709 342.114L203.143 346.976C202.303 348.215 201.831 349.667 201.782 351.164V407.626C201.716 408.093 201.776 408.568 201.956 409.004C202.137 409.439 202.43 409.818 202.807 410.101V410.101Z" fill="#6563FF"/>
<path opacity="0.55" d="M202.807 410.101L194.328 405.254C193.956 404.971 193.661 404.599 193.472 404.171C193.282 403.744 193.204 403.275 193.245 402.809V346.332C193.329 344.817 193.836 343.356 194.709 342.114L203.143 346.976C202.303 348.215 201.831 349.667 201.782 351.164V407.626C201.716 408.093 201.776 408.568 201.956 409.004C202.137 409.439 202.43 409.818 202.807 410.101V410.101Z" fill="white"/>
<path d="M205.515 344.516L323.785 276.222C325.908 274.992 327.622 275.988 327.622 278.433V335.042C327.551 336.372 327.167 337.666 326.5 338.819C325.833 339.972 324.903 340.951 323.785 341.675L205.515 409.852C203.392 411.067 201.679 410.072 201.679 407.626V351.149C201.749 349.819 202.133 348.525 202.8 347.372C203.467 346.219 204.397 345.24 205.515 344.516V344.516Z" fill="#6563FF"/>
<path opacity="0.7" d="M205.515 344.516L323.785 276.222C325.908 274.992 327.622 275.988 327.622 278.433V335.042C327.551 336.372 327.167 337.666 326.5 338.819C325.833 339.972 324.903 340.951 323.785 341.675L205.515 409.852C203.392 411.067 201.679 410.072 201.679 407.626V351.149C201.749 349.819 202.133 348.525 202.8 347.372C203.467 346.219 204.397 345.24 205.515 344.516V344.516Z" fill="white"/>
<path d="M318.016 271.155L326.362 275.914C325.938 275.756 325.481 275.705 325.032 275.763C324.583 275.822 324.155 275.989 323.785 276.251L205.501 344.516C204.501 345.134 203.659 345.976 203.041 346.976L194.606 342.114C195.208 341.124 196.036 340.291 197.023 339.684L315.307 271.39C315.829 271.072 316.424 270.895 317.035 270.877C317.381 270.881 317.719 270.977 318.016 271.155V271.155Z" fill="#6563FF"/>
<path opacity="0.85" d="M318.016 271.155L326.362 275.914C325.938 275.756 325.481 275.705 325.032 275.763C324.583 275.822 324.155 275.989 323.785 276.251L205.501 344.516C204.501 345.134 203.659 345.976 203.041 346.976L194.606 342.114C195.208 341.124 196.036 340.291 197.023 339.684L315.307 271.39C315.829 271.072 316.424 270.895 317.035 270.877C317.381 270.881 317.719 270.977 318.016 271.155V271.155Z" fill="white"/>
<path d="M214.755 349.729L314.546 292.036C315.556 291.45 316.376 291.86 316.376 292.959C316.333 293.577 316.145 294.176 315.827 294.708C315.509 295.239 315.07 295.689 314.546 296.019L214.755 353.712C213.745 354.297 212.925 353.887 212.925 352.789C212.97 352.171 213.159 351.573 213.477 351.042C213.794 350.51 214.232 350.061 214.755 349.729V349.729Z" fill="#6563FF"/>
<path d="M214.755 390.055L314.546 332.348C315.556 331.762 316.376 332.187 316.376 333.285C316.331 333.9 316.142 334.497 315.824 335.026C315.506 335.555 315.068 336.002 314.546 336.331L214.755 394.038C213.745 394.624 212.925 394.199 212.925 393.101C212.97 392.485 213.159 391.889 213.477 391.36C213.795 390.831 214.233 390.384 214.755 390.055V390.055Z" fill="#6563FF"/>
<path d="M214.755 369.892L314.546 312.155C315.556 311.57 316.376 311.98 316.376 313.078C316.331 313.695 316.142 314.294 315.824 314.825C315.506 315.357 315.068 315.806 314.546 316.138L214.755 373.831C213.745 374.416 212.925 374.007 212.925 372.894C212.976 372.286 213.169 371.698 213.486 371.177C213.804 370.656 214.238 370.216 214.755 369.892V369.892Z" fill="#6563FF"/>
<path d="M214.755 379.966L314.546 322.273C315.556 321.688 316.376 322.098 316.376 323.196C316.333 323.814 316.145 324.413 315.827 324.945C315.509 325.477 315.07 325.926 314.546 326.256L214.755 383.905C213.745 384.491 212.925 384.081 212.925 382.983C212.976 382.373 213.169 381.783 213.486 381.26C213.804 380.736 214.238 380.294 214.755 379.966V379.966Z" fill="#6563FF"/>
<path d="M214.755 359.818L314.546 302.11C315.556 301.525 316.376 301.949 316.376 303.047C316.331 303.663 316.142 304.259 315.824 304.788C315.506 305.318 315.068 305.764 314.546 306.093L214.755 363.8C213.745 364.386 212.925 363.962 212.925 362.863C212.97 362.248 213.159 361.651 213.477 361.122C213.795 360.593 214.233 360.146 214.755 359.818V359.818Z" fill="#6563FF"/>
<path d="M202.645 325.48L194.607 320.941C194.231 320.661 193.934 320.289 193.744 319.86C193.554 319.432 193.478 318.962 193.523 318.496V168.187C193.602 166.671 194.109 165.209 194.987 163.97L202.836 168.509C202.037 169.722 201.587 171.13 201.533 172.58V323.006C201.476 323.48 201.55 323.961 201.746 324.397C201.942 324.833 202.253 325.207 202.645 325.48V325.48Z" fill="#263238"/>
<path d="M325.645 97.1404C324.935 97.0771 324.224 97.2523 323.624 97.6383L205.34 165.932C204.304 166.58 203.436 167.463 202.806 168.509L194.943 163.97C195.555 162.988 196.381 162.157 197.359 161.539L315.644 93.2601C316.157 92.9335 316.749 92.7514 317.357 92.7329C317.705 92.7301 318.047 92.8158 318.353 92.9818L325.645 97.1404Z" fill="#37474F"/>
<path d="M205.34 165.932L323.609 97.6383C325.733 96.4229 327.446 97.404 327.446 99.864V250.421C327.376 251.751 326.991 253.046 326.324 254.199C325.658 255.352 324.727 256.33 323.609 257.054L205.325 325.217C203.216 326.447 201.489 325.451 201.489 323.006V172.58C201.564 171.248 201.952 169.952 202.621 168.797C203.29 167.642 204.221 166.661 205.34 165.932V165.932Z" fill="#455A64"/>
<path d="M211.416 170.589L317.577 109.294C319.48 108.196 321.018 109.089 321.018 111.285V246.424C320.954 247.618 320.608 248.78 320.01 249.815C319.413 250.851 318.579 251.731 317.577 252.383L211.416 313.62C209.513 314.718 207.975 313.825 207.975 311.628V176.563C208.04 175.367 208.385 174.203 208.983 173.165C209.58 172.127 210.414 171.245 211.416 170.589V170.589Z" fill="#F0F0F0"/>
<path d="M300.357 291.143C284.645 235.749 284.469 226.715 285.407 220.184C299.669 216.743 305.906 226.524 309.714 243.012C311.544 250.934 316.815 281.083 320.081 293.691C323.009 304.746 326.553 316.607 330.858 324.441C331.207 325.104 331.709 325.674 332.323 326.105C332.937 326.535 333.644 326.813 334.387 326.915C338.384 327.486 339.57 329.727 342.821 331.396C345.369 332.684 347.214 332.362 347.141 333.256C346.952 334.249 346.466 335.162 345.746 335.873C345.027 336.584 344.109 337.06 343.114 337.238C341.512 337.411 339.892 337.307 338.326 336.931C340.253 339.455 342.613 341.616 345.296 343.315C351.563 347.371 353.51 353.565 342.66 356.625C338.399 357.812 330.462 356.464 321.018 343.71C317.873 339.144 315.264 334.231 313.242 329.068C307.869 315.465 303.49 302.213 300.357 291.143Z" fill="#FFA8A7"/>
<path d="M262.212 226.553C262.212 226.553 246.662 232.074 242.65 233.963C252.9 246.263 240.629 279.824 240.629 279.824L247.174 302.432L296.374 285.198C304.515 264.698 306.112 255.4 305.394 249.777C303.769 237.038 296.154 228.677 285.407 220.184L262.212 226.553Z" fill="#6563FF"/>
<path d="M299.156 212.906L273.502 220.96C269.591 222.189 265.446 222.48 261.401 221.811C257.356 221.142 253.526 219.53 250.219 217.107C246.912 214.684 244.222 211.517 242.365 207.862C240.508 204.207 239.537 200.167 239.531 196.067V190.62C239.531 172.229 252.446 153.867 268.377 149.62L270.529 149.049C286.461 144.773 299.376 156.224 299.376 174.615V179.755C299.376 196.214 299.156 212.906 299.156 212.906Z" fill="#37474F"/>
<path d="M249.458 157.249C247.877 155.697 245.227 156.283 243.528 158.552L246.691 161.686C245.942 161.597 245.184 161.746 244.524 162.11C243.378 162.754 242.454 163.729 241.874 164.908C241.294 166.087 241.084 167.414 241.273 168.714L249.488 164.512C249.445 164.323 249.391 164.138 249.327 163.955C250.879 161.7 250.981 158.757 249.458 157.249Z" fill="#37474F"/>
<path d="M288.145 163.384C291.073 165.303 295.173 168.744 294.793 188.087C294.47 204.472 289.887 209.729 287.588 211.515C285.289 213.302 280.853 213.77 276.548 214.092V224.43C276.548 224.43 284.001 231.488 283.62 236.144C283.239 240.801 276.548 244.623 266.444 238.429C262.887 236.057 259.889 232.939 257.658 229.292L257.746 207.181C257.746 207.181 255.213 210.695 250.923 207.503C249.111 206.068 247.902 204.007 247.534 201.725C247.165 199.443 247.664 197.107 248.931 195.174C249.486 194.314 250.219 193.582 251.08 193.029C251.941 192.476 252.911 192.114 253.924 191.967C254.518 191.939 255.112 192.033 255.669 192.241C256.225 192.449 256.734 192.768 257.164 193.179C257.594 193.59 257.936 194.083 258.169 194.63C258.403 195.177 258.523 195.765 258.522 196.36V197.575C258.522 197.575 261.656 198.059 261.861 191.938C261.978 188.541 266.034 183.152 270.002 179.755C276.753 173.942 285.348 173.869 288.145 163.384Z" fill="#FFA8A7"/>
<path d="M277.236 187.076C277.262 187.64 277.114 188.197 276.813 188.674C276.512 189.15 276.072 189.523 275.552 189.741C274.571 190.064 273.736 189.375 273.692 188.277C273.665 187.712 273.812 187.152 274.113 186.673C274.414 186.194 274.855 185.818 275.376 185.598C276.343 185.231 277.192 185.905 277.236 187.076Z" fill="#263238"/>
<path d="M278.422 201.119L283.649 201.646C283.519 202.472 283.11 203.228 282.488 203.788C281.867 204.348 281.073 204.677 280.238 204.721C278.803 204.575 277.983 202.964 278.422 201.119Z" fill="#F28F8F"/>
<path d="M292.611 178.174L289.023 176.255C289.668 174.894 291.015 174.22 291.952 174.791C292.463 175.172 292.813 175.73 292.935 176.355C293.057 176.98 292.941 177.629 292.611 178.174V178.174Z" fill="#263238"/>
<path d="M272.155 183.489L275.742 179.638C275.083 178.642 273.751 178.672 272.814 179.74C272.324 180.217 271.997 180.835 271.878 181.508C271.76 182.181 271.857 182.874 272.155 183.489Z" fill="#263238"/>
<path d="M292.186 184.016C292.217 184.582 292.072 185.144 291.77 185.624C291.469 186.104 291.026 186.478 290.502 186.696C289.521 187.018 288.686 186.33 288.642 185.231C288.613 184.666 288.759 184.105 289.061 183.625C289.362 183.146 289.804 182.771 290.326 182.552C291.293 182.171 292.142 182.859 292.186 184.016Z" fill="#263238"/>
<path d="M283.649 184.602L283.928 196.873L289.55 193.358L283.649 184.602Z" fill="#F28F8F"/>
<path d="M276.548 214.049C272.008 214.576 262.666 214.049 261.202 210.11C261.714 211.975 262.878 213.596 264.482 214.678C267.279 216.684 276.548 217.314 276.548 217.314V214.049Z" fill="#F28F8F"/>
<path d="M215.853 322.493C220.7 269.559 223.467 239.732 242.649 233.963C245.505 235.002 248.155 241.284 248.653 245.838C249.517 253.54 248.477 266.836 243.704 273.659C243.704 273.659 237.686 305.376 235.357 323.635C233.747 336.272 230.276 354.473 231.082 364.723C231.463 366.575 232.276 368.311 233.454 369.789L236.704 375.193C237.345 376.326 238.079 377.404 238.901 378.414C239.648 379.278 240.512 380.025 241.317 380.83C241.917 381.416 242.503 382.294 242.005 382.997C241.812 383.225 241.558 383.392 241.273 383.48C240.319 383.841 239.295 383.978 238.28 383.882C237.265 383.786 236.285 383.458 235.416 382.924C234.332 382.25 233.454 381.269 232.326 380.684C232.42 382.573 232.956 384.414 233.893 386.057C234.537 387.39 235.182 388.737 235.899 390.055C236.673 391.375 237.358 392.744 237.949 394.155C238.558 395.567 238.706 397.135 238.374 398.636C238.001 399.781 237.315 400.8 236.394 401.576C235.473 402.352 234.353 402.855 233.161 403.028C230.766 403.336 228.335 402.858 226.235 401.667C219.016 397.933 216.6 390.436 215.692 382.909C214.811 376.65 214.322 370.341 214.228 364.02C214.506 347.298 214.916 332.802 215.853 322.493Z" fill="#FFA8A7"/>
<path d="M257.717 227.769C254.592 228.437 251.615 229.667 248.931 231.4C248.931 231.4 255.843 244.754 267.703 246.687C279.564 248.62 280.413 240.64 280.413 240.64C272.989 240.947 265.492 237.726 257.717 227.769Z" fill="#455A64"/>
<path d="M276.548 222.41V224.43C281.585 230.99 283.122 236.657 280.34 240.64C280.34 240.64 288.643 243.466 290.107 237.374C291.571 231.283 281.028 221.414 281.028 221.414C279.494 221.525 277.985 221.861 276.548 222.41V222.41Z" fill="#455A64"/>
<path d="M168.396 63.5498L159.61 68.6309C159.656 68.242 159.68 67.851 159.683 67.4594V64.9262C159.683 60.387 156.506 58.5566 152.582 60.8116C150.886 61.849 149.437 63.2431 148.335 64.897C147.706 59.1863 143.225 57.0777 137.807 60.2113C134.709 62.2239 132.132 64.9405 130.284 68.1393C128.437 71.3381 127.372 74.9284 127.176 78.6173V82.4244C127.139 83.9373 127.445 85.4389 128.07 86.8172L120.748 91.0343C119.603 91.785 118.649 92.7929 117.963 93.9776C117.276 95.1623 116.876 96.4911 116.795 97.8579C116.795 100.376 118.566 101.401 120.748 100.142L168.396 72.6576C169.538 71.9054 170.489 70.8968 171.173 69.7122C171.857 68.5275 172.255 67.1996 172.335 65.8341C172.349 63.3155 170.592 62.3052 168.396 63.5498Z" fill="#EBEBEB"/>
<path d="M110.322 40.2092L105.432 42.0688V31.3942C105.432 22.9307 98.6815 20.8954 91.3601 25.1271C84.0387 29.3735 78.079 39.6674 78.079 48.131V49.6831C77.0471 49.3599 75.9548 49.2777 74.8861 49.4427C73.8174 49.6077 72.8008 50.0155 71.9144 50.6349V50.6349C69.1338 52.4476 66.82 54.8907 65.1611 57.7658C63.5022 60.6408 62.545 63.8667 62.3673 67.1812V67.8841L55.6463 71.7791C53.8145 72.9725 52.2898 74.5808 51.1959 76.4736C50.1019 78.3664 49.4695 80.4904 49.3499 82.6733C49.3499 86.6855 52.1759 88.3108 55.6463 86.3047L110.322 54.7349C112.152 53.5407 113.675 51.9319 114.766 50.039C115.858 48.1461 116.487 46.0225 116.604 43.8406C116.604 39.7992 113.793 38.2031 110.322 40.2092Z" fill="#EBEBEB"/>
<path d="M415.405 345.834C413.341 344.135 410.163 343.784 406.356 345.204C398.727 348.03 391.435 356.83 390.059 364.84C389.371 368.852 390.308 371.913 392.358 373.626L532.27 498.997C535.11 501.677 539.708 502.336 545.302 500.271C555.962 496.318 566.168 484.032 568.071 472.816C569.082 466.959 567.588 462.566 564.411 460.238L415.405 345.834Z" fill="#6563FF"/>
<path opacity="0.15" d="M411.899 366.345C418.261 358.677 419.825 349.481 415.394 345.805C410.962 342.128 402.213 345.364 395.851 353.032C389.49 360.7 387.925 369.896 392.357 373.572C396.788 377.249 405.538 374.013 411.899 366.345Z" fill="black"/>
<path d="M362.72 315.538C360.26 316.6 358.085 318.23 356.375 320.294C354.665 322.358 353.467 324.798 352.881 327.413C352.618 328.339 352.608 329.319 352.85 330.25C353.092 331.182 353.577 332.032 354.257 332.714L396.911 368.105C397.704 368.652 398.628 368.977 399.589 369.046C400.549 369.116 401.51 368.928 402.373 368.501C404.835 367.437 407.01 365.807 408.723 363.743C410.435 361.68 411.636 359.241 412.228 356.625C412.491 355.696 412.501 354.713 412.256 353.778C412.011 352.844 411.521 351.992 410.837 351.31L368.197 315.933C367.402 315.385 366.475 315.06 365.512 314.99C364.55 314.921 363.586 315.11 362.72 315.538V315.538Z" fill="#263238"/>
<path opacity="0.1" d="M408.172 370.097L552.608 496.171C550.36 497.84 547.897 499.2 545.287 500.213C539.693 502.277 535.037 501.677 532.24 498.924L392.431 373.655C394.51 375.368 397.658 375.69 401.48 374.285C403.931 373.277 406.194 371.861 408.172 370.097Z" fill="black"/>
<path d="M437.517 178.906C437.517 177.442 437.4 175.977 437.283 174.513C437.166 173.049 437.107 171.658 436.961 170.252C436.961 169.3 436.785 168.378 436.668 167.426C436.419 164.981 436.067 162.55 435.657 160.251C435.482 159.197 435.291 158.128 435.086 157.073C434.881 156.019 434.676 155.082 434.471 154.145C433.856 151.48 433.197 148.873 432.451 146.37C432.055 145.183 431.689 143.997 431.294 142.841C431.216 142.667 431.157 142.485 431.118 142.299C430.693 141.142 430.283 140.029 429.844 138.931C429.405 137.833 428.848 136.412 428.263 135.212C427.853 134.319 427.472 133.455 427.003 132.591C426.738 131.943 426.425 131.317 426.066 130.716C425.704 129.945 425.303 129.193 424.866 128.461C424.78 128.289 424.682 128.122 424.573 127.964C424.221 127.319 423.811 126.66 423.431 126.016C423.05 125.372 422.889 125.196 422.64 124.786C420.796 121.867 418.715 119.105 416.417 116.527C416.021 116.088 415.626 115.649 415.275 115.224L414.294 114.199C413.898 113.775 413.459 113.379 413.02 112.94C411.839 111.743 410.587 110.619 409.271 109.572C408.656 109.045 408.012 108.547 407.353 108.108C406.694 107.669 406.064 107.141 405.376 106.644C404.343 105.885 403.268 105.186 402.155 104.55L401.291 104.008L401.115 103.861L380.923 92.0008L380.63 91.8251C370.785 86.3414 359.669 83.5485 348.401 83.7276C331.635 83.7276 312.731 89.2187 292.685 100.757C223.864 140.512 168.06 237.17 168.06 316.665C168.06 356.318 181.927 384.198 204.345 397.201L204.55 397.303L224.772 409.135L225.006 409.266L225.299 409.427L225.621 409.603C226.587 410.16 227.554 410.672 228.55 411.155C229.545 411.638 231.039 412.312 232.298 412.795C233.419 413.287 234.568 413.712 235.739 414.069C236.334 414.283 236.94 414.464 237.555 414.611C238.203 414.857 238.868 415.053 239.546 415.197C240.211 415.397 240.885 415.563 241.567 415.695C242.047 415.835 242.536 415.943 243.031 416.017C243.895 416.192 244.832 416.383 245.74 416.5C245.94 416.562 246.146 416.597 246.355 416.602C247.424 416.778 248.522 416.939 249.591 417.042C268.158 418.989 289.742 413.747 312.848 400.422C381.669 360.682 437.532 263.98 437.532 184.514C437.619 182.669 437.576 180.795 437.517 178.906ZM210.378 366.48C207.496 355.848 206.077 344.872 206.161 333.856C206.161 258.533 261.276 163.048 326.51 125.386C336.035 119.746 346.315 115.491 357.04 112.75C362.182 111.478 367.455 110.815 372.752 110.773C375.419 110.761 378.084 110.966 380.718 111.388H380.937C394.291 127.187 396.254 152.49 396.254 166.02C396.254 241.343 341.197 336.828 275.934 374.475C259.329 384.051 243.368 389.118 229.677 389.118C226.836 389.137 224.004 388.778 221.257 388.049C216.193 381.679 212.49 374.338 210.378 366.48V366.48Z" fill="#6563FF"/>
<path opacity="0.15" d="M419.696 179.243C419.696 219.261 404.145 264.947 379.779 304.658C378.637 306.547 377.466 308.392 376.265 310.252C375.255 311.848 374.215 313.444 373.131 315.025C370.847 318.422 368.534 321.776 366.103 325.056C364.961 326.622 363.804 328.175 362.618 329.697C361.432 331.22 360.041 333.051 358.723 334.705C356.219 337.868 353.627 340.943 350.992 343.945C349.264 345.951 347.492 347.913 345.706 349.802C331.356 365.235 315.673 378.268 299.361 387.668C296.242 389.469 293.167 391.109 290.107 392.588C280.185 397.628 269.436 400.837 258.376 402.062C256.589 402.238 254.832 402.311 253.134 402.311C252.226 402.311 251.362 402.311 250.498 402.238H250.396C248.737 402.167 247.084 401.996 245.446 401.725C244.641 401.608 243.85 401.476 243.089 401.301C242.323 401.153 241.566 400.968 240.819 400.744C233.093 398.782 226.225 394.337 221.271 388.093C224.013 388.822 226.839 389.181 229.676 389.162C243.367 389.162 259.328 384.11 275.933 374.519C341.196 336.872 396.252 241.387 396.252 166.064C396.252 152.534 394.29 127.231 380.936 111.432H380.716C397.731 114.155 407.41 125.723 412.857 139.092C414.402 142.893 415.646 146.81 416.577 150.806C416.577 151.026 416.679 151.246 416.723 151.465C416.899 152.183 417.075 152.929 417.206 153.632C417.338 154.335 417.485 155.097 417.616 155.741C417.66 155.92 417.694 156.1 417.719 156.283C417.865 157.044 417.997 157.791 418.114 158.523C418.539 161.32 418.89 164.043 419.125 166.65C419.125 167.411 419.256 168.114 419.3 168.846C419.344 169.578 419.388 169.944 419.417 170.472C419.417 170.691 419.417 170.925 419.417 171.145C419.417 171.731 419.491 172.302 419.52 172.873C419.52 173.034 419.52 173.18 419.52 173.356C419.52 174.074 419.52 174.82 419.593 175.479C419.681 176.739 419.696 178.027 419.696 179.243Z" fill="black"/>
<path opacity="0.1" d="M223.043 408.212L204.329 397.215C181.911 384.11 168.044 356.215 168.044 316.68C168.044 281.215 179.158 242.368 197.55 206.698L218.855 218.954C200.449 254.624 188.252 293.076 188.252 328.526C188.252 367.285 201.445 394.785 223.043 408.212Z" fill="black"/>
<path opacity="0.4" d="M401.304 104.008L401.129 103.861L380.951 92.0008H380.877L380.599 91.8251C370.762 86.3483 359.657 83.5557 348.4 83.7276C331.648 83.7276 312.73 89.204 292.684 100.757C254.613 122.721 220.392 162.257 197.506 206.713L218.709 219.188L218.255 220.067C241.171 176.138 275.156 136.412 312.891 112.632C347.053 91.1076 379.472 90.8147 402.11 104.579L401.304 104.008Z" fill="white"/>
<path opacity="0.3" d="M408.845 172.858C408.845 248.181 353.73 343.667 288.496 381.328C278.971 386.968 268.691 391.223 257.966 393.965C252.824 395.237 247.551 395.901 242.254 395.941C236.813 396.011 231.404 395.088 226.293 393.218C218.196 386.424 213.305 376.584 210.377 366.48C207.495 355.848 206.076 344.872 206.16 333.856C206.16 258.533 261.275 163.048 326.509 125.386C336.034 119.746 346.314 115.491 357.039 112.75C362.181 111.478 367.454 110.815 372.751 110.773C378.191 110.705 383.598 111.623 388.711 113.482C396.824 120.276 401.714 130.131 404.643 140.234C407.514 150.869 408.928 161.844 408.845 172.858Z" fill="white"/>
<path d="M197.257 399.192L185.455 392.442C184.901 392.029 184.464 391.481 184.184 390.85C183.905 390.219 183.792 389.527 183.859 388.84V168.129C183.959 165.906 184.69 163.757 185.967 161.935L197.491 168.597C196.326 170.379 195.668 172.444 195.588 174.572V395.619C195.524 396.309 195.645 397.004 195.939 397.632C196.232 398.259 196.687 398.798 197.257 399.192Z" fill="#263238"/>
<path d="M377.949 63.7548C376.919 63.6735 375.891 63.9306 375.02 64.487L201.21 164.819C199.693 165.771 198.419 167.065 197.491 168.597L185.967 161.935C186.857 160.486 188.07 159.263 189.511 158.362L363.262 58.0588C364.017 57.5786 364.887 57.3105 365.781 57.2827C366.292 57.2787 366.796 57.4046 367.245 57.6488L377.949 63.7548Z" fill="#37474F"/>
<path d="M201.225 164.805L374.977 64.5016C378.081 62.7006 380.614 64.1502 380.614 67.7523V288.859C380.506 290.813 379.94 292.714 378.96 294.408C377.981 296.102 376.616 297.542 374.977 298.611L201.225 398.811C198.106 400.598 195.588 399.148 195.588 395.546V174.513C195.701 172.566 196.27 170.673 197.25 168.987C198.229 167.301 199.591 165.868 201.225 164.805V164.805Z" fill="#455A64"/>
<path d="M210.142 171.658L366.074 81.6191C368.856 80.0083 371.125 81.3116 371.125 84.5476V283.045C371.035 284.804 370.531 286.517 369.653 288.044C368.775 289.571 367.549 290.869 366.074 291.831L210.128 381.709C207.331 383.319 205.061 382.016 205.061 378.78V180.37C205.168 178.622 205.683 176.923 206.566 175.41C207.448 173.897 208.673 172.611 210.142 171.658V171.658Z" fill="#F0F0F0"/>
<path d="M340.786 348.762C317.709 267.392 317.46 254.067 318.822 244.535C339.775 239.483 348.898 253.833 354.521 278.067C357.23 289.781 364.961 334.032 369.764 352.511C373.981 368.75 379.267 386.189 385.578 397.786C386.094 398.757 386.833 399.59 387.734 400.219C388.635 400.848 389.673 401.254 390.762 401.403C396.619 402.238 398.376 405.547 403.164 407.978C406.913 409.896 409.68 409.442 409.504 410.731C409.229 412.194 408.514 413.539 407.454 414.586C406.395 415.632 405.041 416.331 403.574 416.588C401.568 416.939 400.016 416.588 396.56 416.119C399.39 419.838 402.861 423.022 406.81 425.52C416.006 431.48 418.876 440.646 402.93 445.068C396.677 446.796 385.007 444.819 371.155 426.106C366.537 419.402 362.704 412.189 359.734 404.61C351.826 384.476 345.413 365.016 340.786 348.762Z" fill="#FFA8A7"/>
<path d="M284.777 253.862C284.777 253.862 261.934 261.974 256.019 264.757C270.983 282.811 253.09 332.113 253.09 332.113L262.71 365.338C252.358 383.407 333.508 349.861 334.987 340.006C346.936 309.798 349.264 296.239 348.166 287.98C345.794 269.267 334.606 256.981 318.88 244.506L284.777 253.862Z" fill="#6563FF"/>
<path d="M262.681 365.338C282.185 364.825 326.157 347.986 334.958 340.006C346.906 309.798 349.234 296.239 348.136 287.98" fill="#6563FF"/>
<path d="M339.028 233.802L301.352 245.633C295.604 247.439 289.511 247.867 283.566 246.882C277.622 245.897 271.993 243.527 267.134 239.963C262.275 236.398 258.324 231.741 255.599 226.366C252.875 220.992 251.453 215.052 251.45 209.026V201.163C251.45 174.147 270.412 147.16 293.811 140.893L296.974 140.044C320.403 133.762 339.351 150.587 339.351 177.617V185.158C339.351 209.29 339.028 233.802 339.028 233.802Z" fill="#37474F"/>
<path d="M266.019 152.051C263.72 149.781 259.811 150.587 257.307 153.969L261.963 158.567C260.86 158.45 259.747 158.669 258.771 159.197C257.087 160.141 255.729 161.575 254.879 163.309C254.029 165.043 253.727 166.995 254.012 168.905L266.078 162.74C266.015 162.456 265.931 162.178 265.829 161.906C268.128 158.596 268.26 154.262 266.019 152.051Z" fill="#37474F"/>
<path d="M322.848 161.086C327.241 163.882 333.186 168.934 332.615 197.356C332.146 221.429 325.411 229.16 322.043 231.766C318.675 234.373 312.144 235.076 305.819 235.559V250.743C305.819 250.743 316.757 261.125 316.215 267.861C315.673 274.597 305.819 280.307 290.985 271.214C285.778 267.724 281.387 263.148 278.114 257.801L278.246 225.309C278.246 225.309 274.527 230.492 268.216 225.807C265.554 223.695 263.778 220.665 263.236 217.311C262.695 213.957 263.426 210.521 265.287 207.679C266.099 206.416 267.172 205.342 268.436 204.531C269.699 203.72 271.122 203.19 272.609 202.979C273.486 202.926 274.365 203.055 275.189 203.359C276.014 203.663 276.766 204.135 277.399 204.745C278.032 205.354 278.532 206.088 278.867 206.901C279.202 207.714 279.364 208.587 279.344 209.465V211.252C279.344 211.252 283.957 211.969 284.264 202.979C284.44 197.985 290.4 190.093 296.228 185.085C306.155 176.578 318.748 176.475 322.848 161.086Z" fill="#FFA8A7"/>
<path d="M306.829 195.862C306.87 196.693 306.655 197.517 306.212 198.222C305.77 198.926 305.121 199.478 304.354 199.801C302.89 200.27 301.689 199.259 301.616 197.546C301.58 196.718 301.797 195.898 302.24 195.197C302.682 194.496 303.328 193.946 304.091 193.622C305.526 193.153 306.756 194.164 306.829 195.862Z" fill="#263238"/>
<path d="M308.572 216.509L316.244 217.285C315.6 219.994 313.316 222.014 311.251 221.795C309.187 221.575 307.927 219.217 308.572 216.509Z" fill="#F28F8F"/>
<path d="M329.467 182.801L324.195 179.989C325.162 177.983 327.124 177.061 328.588 177.778C330.052 178.496 330.375 180.795 329.467 182.801Z" fill="#263238"/>
<path d="M299.361 190.62L304.632 184.983C303.666 183.518 301.704 183.518 300.24 185.114C299.535 185.824 299.071 186.738 298.913 187.726C298.755 188.714 298.912 189.726 299.361 190.62V190.62Z" fill="#263238"/>
<path d="M328.793 191.381C328.835 192.213 328.619 193.036 328.177 193.741C327.734 194.446 327.085 194.997 326.319 195.32C324.854 195.774 323.654 194.779 323.58 193.065C323.544 192.237 323.762 191.418 324.204 190.716C324.646 190.015 325.292 189.465 326.055 189.141C327.49 188.673 328.72 189.683 328.793 191.381Z" fill="#263238"/>
<path d="M316.244 192.245L316.669 210.271L324.927 205.102L316.244 192.245Z" fill="#F28F8F"/>
<path d="M305.819 235.559C299.141 236.335 285.421 235.456 283.283 229.775C284.039 232.513 285.747 234.891 288.101 236.481C292.201 239.41 305.819 240.362 305.819 240.362V235.559Z" fill="#F28F8F"/>
<path d="M216.717 394.799C223.848 317.031 227.904 273.264 256.077 264.757C260.279 266.221 264.174 275.563 264.863 282.196C266.122 293.5 264.599 313.049 257.541 323.108C257.541 323.108 248.756 369.701 245.285 396.512C242.913 415.08 237.817 441.832 239.003 456.885C239.238 459.725 241.053 461.937 242.488 464.323L247.262 472.245C248.204 473.915 249.287 475.502 250.498 476.989C251.582 478.263 252.856 479.361 254.042 480.533C254.92 481.397 255.784 482.744 255.052 483.725C254.771 484.058 254.4 484.302 253.983 484.428C252.573 484.968 251.058 485.176 249.555 485.036C248.052 484.896 246.601 484.413 245.314 483.623C243.718 482.627 242.386 481.177 240.761 480.328C240.899 483.1 241.692 485.799 243.074 488.206C244.011 490.182 244.948 492.159 246.003 494.063C247.165 495.983 248.197 497.979 249.092 500.037C249.983 502.12 250.203 504.428 249.722 506.641C249.163 508.316 248.149 509.802 246.794 510.935C245.439 512.067 243.797 512.801 242.049 513.055C238.528 513.495 234.958 512.786 231.872 511.034C221.286 505.557 217.742 494.546 216.395 483.491C215.125 474.294 214.436 465.026 214.33 455.743C214.682 431.274 215.253 409.925 216.717 394.799Z" fill="#FFA8A7"/>
<path d="M278.114 255.649C273.503 256.625 269.107 258.431 265.141 260.979C265.141 260.979 275.303 280.6 292.728 283.441C310.153 286.281 311.383 274.553 311.383 274.553C300.591 275.007 289.565 270.292 278.114 255.649Z" fill="#455A64"/>
<path d="M305.818 247.727V250.656C313.213 260.291 315.483 268.608 311.383 274.465C311.383 274.465 323.595 278.609 325.733 269.677C327.871 260.744 312.408 246.248 312.408 246.248C310.151 246.416 307.931 246.915 305.818 247.727Z" fill="#455A64"/>
<path d="M507.508 318.012C517.656 316.885 521.551 319.857 525.329 328.262C528.931 336.287 539.972 360.477 539.415 366.114C538.859 371.751 515.782 395.751 515.782 395.751L509.207 387.756L523.469 363.771L512.121 339.567L507.508 318.012Z" fill="#FFA8A7"/>
<path d="M487.126 310.135L489.029 330.049L506.82 328.936L505.4 306.855L487.126 310.135Z" fill="#FFA8A7"/>
<path d="M464.327 271.858C464.174 270.922 464.174 269.968 464.327 269.032C464.55 267.821 465.034 266.674 465.744 265.668C466.454 264.662 467.375 263.823 468.441 263.207C469.508 262.592 470.695 262.215 471.921 262.104C473.147 261.992 474.383 262.148 475.543 262.56C475.199 260.732 475.478 258.841 476.336 257.19C477.193 255.539 478.579 254.223 480.273 253.452C481.589 252.953 482.992 252.724 484.398 252.78C485.805 252.835 487.185 253.173 488.458 253.774C489.987 254.311 491.257 255.404 492.016 256.835C492.917 255.326 494.24 254.115 495.823 253.351C497.405 252.587 499.177 252.305 500.919 252.539C502.66 252.772 504.295 253.512 505.62 254.666C506.945 255.821 507.902 257.338 508.372 259.031C511.081 258.431 514.903 259.632 516.118 262.326C517.495 265.386 515.811 269.179 516.44 272.385C516.85 274.465 517.744 276.412 518.124 278.521C518.513 280.869 518.733 283.243 518.783 285.623C519.179 295.448 496.351 301.832 496.819 308.582L484.68 293.779C484.68 293.164 482.952 291.626 482.572 291.114C481.84 290.133 481.195 289.093 480.522 288.068C478.431 285.076 475.523 282.748 472.146 281.361C469.76 280.263 467.694 278.575 466.142 276.456C465.197 275.081 464.576 273.509 464.327 271.858V271.858Z" fill="#263238"/>
<path d="M473.918 288.288C473.918 288.288 469.979 294.145 470.491 294.76C471.413 295.364 472.434 295.801 473.508 296.048L473.918 288.288Z" fill="#F28F8F"/>
<path d="M485.954 269.691C482.132 271.639 475.514 275.226 473.801 289.108C472.058 303.34 475.265 308.29 477.256 310.149C478.589 311.409 485.471 311.862 489.058 310.779C493.539 309.402 503.277 304.687 507.831 297.337C513.19 288.683 514.303 277.159 508.109 272.649C499.396 266.338 489.205 268.095 485.954 269.691Z" fill="#FFA8A7"/>
<path d="M477.623 310.457C479.233 311.335 483.816 311.701 487.228 311.204L487.111 308.656C485.647 309.285 484.127 309.775 482.572 310.12C480.948 310.478 479.28 310.591 477.623 310.457V310.457Z" fill="#F28F8F"/>
<path d="M484.285 269.31C482.658 269.904 481.147 270.776 479.819 271.888C479.154 272.441 478.614 273.13 478.238 273.908C477.948 274.633 477.838 275.416 477.915 276.193C478.029 277.261 478.42 278.281 479.049 279.152C479.678 280.022 480.524 280.713 481.503 281.156C480.983 281.857 480.627 282.665 480.46 283.522C480.293 284.378 480.319 285.261 480.536 286.106C481.237 288.073 482.45 289.817 484.051 291.158C484.132 291.251 484.231 291.326 484.344 291.377C484.456 291.396 484.571 291.388 484.68 291.355C484.79 291.322 484.89 291.264 484.973 291.187C487.375 289.576 488.868 286.794 492.295 287.921C496.761 289.386 496.541 294.891 493.041 298.318C491.793 299.581 490.139 300.364 488.37 300.529C487.473 300.55 486.598 300.243 485.91 299.665C485.91 299.665 486.042 306.84 492.28 309.695C496.629 310.962 501.241 311.017 505.62 309.856C507.977 306.855 511.931 303.033 515.181 299.606C525.885 288.346 526.5 271.99 510.701 266.821C510.159 266.645 509.617 266.484 509.061 266.338C503.98 265.012 498.658 264.896 493.525 266.001C490.995 266.547 488.537 267.387 486.203 268.505L484.285 269.31Z" fill="#263238"/>
<path d="M483.773 296.18C483.358 296.041 482.976 295.819 482.648 295.529C482.321 295.239 482.055 294.887 481.866 294.492C481.678 294.097 481.571 293.669 481.551 293.232C481.531 292.795 481.6 292.358 481.752 291.948C482.062 291.116 482.688 290.439 483.494 290.066C484.301 289.693 485.222 289.654 486.057 289.957L483.773 296.18Z" fill="#263238"/>
<path d="M485.53 569.268C486.168 571.221 486.706 573.205 487.14 575.213C487.594 577.424 488.239 581.07 487.462 582.769C486.686 584.467 483.67 585.507 478.999 585.463C475.983 585.463 471.268 587.498 468.032 589.3C464.795 591.101 457.782 591.906 454.238 591.481C450.079 590.998 445.774 588.553 445.101 586.869C444.427 585.185 443.871 582.784 455.117 579.181C455.219 579.181 468.734 574.789 473.479 569.517L485.53 569.268Z" fill="#263238"/>
<path d="M485.53 569.576L483.377 569.312L473.479 569.517C468.734 574.745 455.219 579.152 455.116 579.181L453.315 579.782C451.368 581.363 453.023 584.043 457.708 584.453C462.394 584.863 476.817 580.06 480.024 578.464C481.703 577.674 483.117 576.414 484.094 574.836C485.072 573.258 485.57 571.431 485.53 569.576V569.576Z" fill="#FFA8A7"/>
<path d="M485.53 565.329C485.53 565.329 485.53 568.038 485.53 569.576C485.53 571.113 483.714 573.427 478.984 573.266C475.66 573.149 473.347 572.255 473.479 569.517V565.578L485.53 565.329Z" fill="#FFA8A7"/>
<path d="M517.304 551.477C518.154 551.829 518.329 553.469 518.373 556.734C518.373 559.194 518.813 563.514 515.899 564.29C512.985 565.066 508.782 564.524 506.981 562.152C504.756 559.223 503.262 556.588 500.07 552.971C497.288 549.823 494.213 546.879 493.232 542.53C492.295 538.621 493.232 536.952 495.897 535.897C498.562 534.843 501.007 535.707 504.682 538.826C505.722 539.52 506.831 540.104 507.992 540.568C510.466 541.3 516.455 551.126 517.304 551.477Z" fill="#263238"/>
<path d="M517.378 548.461L517.275 552.458C517.275 552.458 514.596 557.7 507.157 552.458C506.996 552.078 506.337 544.332 506.337 544.332L517.378 548.461Z" fill="#FFA8A7"/>
<path d="M508.021 540.583C506.86 540.119 505.751 539.535 504.712 538.841V538.841C501.783 537.874 495.399 538.987 498.254 543.336C500.614 546.924 503.635 550.03 507.157 552.488C510.525 554.142 511.711 552.092 511.711 552.092L510.51 542.706C509.854 541.818 509.002 541.091 508.021 540.583V540.583Z" fill="#FFA8A7"/>
<path d="M522.752 493.111C522.061 486.072 520.588 479.133 518.359 472.421C518.359 472.421 520.877 454.762 522.854 437.805C527.51 398.035 524.406 397.406 518.783 383.627C518.783 383.627 467.797 377.067 465.674 398.27C463.009 424.627 464.21 475.876 464.664 485.248C465.117 494.619 465.864 498.851 468.646 518.472C470.77 533.408 472.776 566.047 472.776 566.047C479.453 569.898 485.954 565.388 485.954 565.388C485.954 565.388 492.338 525.237 492.192 514.431C492.088 506.44 490.951 498.496 488.81 490.797C488.81 490.797 493.202 447.762 494.242 440.924C494.242 440.924 495.472 454.644 495.926 464.016C496.38 473.387 498.854 482.378 501.153 499.817C503.086 514.943 506.308 546.513 506.308 546.513C512.999 550.364 517.67 548.622 517.67 548.622C517.67 548.622 524.289 506.231 522.752 493.111Z" fill="#6563FF"/>
<g opacity="0.4">
<path opacity="0.4" d="M522.752 493.111C522.061 486.072 520.588 479.133 518.359 472.421C518.359 472.421 520.877 454.762 522.854 437.805C527.51 398.035 524.406 397.406 518.783 383.627C518.783 383.627 467.797 377.067 465.674 398.27C463.009 424.627 464.21 475.876 464.664 485.248C465.117 494.619 465.864 498.851 468.646 518.472C470.77 533.408 472.776 566.047 472.776 566.047C479.453 569.898 485.954 565.388 485.954 565.388C485.954 565.388 492.338 525.237 492.192 514.431C492.088 506.44 490.951 498.496 488.81 490.797C488.81 490.797 493.202 447.762 494.242 440.924C494.242 440.924 495.472 454.644 495.926 464.016C496.38 473.387 498.854 482.378 501.153 499.817C503.086 514.943 506.308 546.513 506.308 546.513C512.999 550.364 517.67 548.622 517.67 548.622C517.67 548.622 524.289 506.231 522.752 493.111Z" fill="black"/>
</g>
<path opacity="0.15" d="M494.242 440.851L496.702 422.255C503.888 422.241 510.86 419.812 516.499 415.358C516.499 415.358 513.161 422.152 499.616 425.125L496.966 444.263L496.014 465.348C495.565 457.109 494.974 448.943 494.242 440.851Z" fill="black"/>
<path d="M520.57 326.3C518.842 321.175 515.313 318.159 507.508 318.071H506.132C505.576 321 496.424 323.547 488.121 320.619C486.979 320.824 483.026 321.263 481.21 321.512L477.242 322.083C471.209 324.06 468.544 334.559 467.958 351.178C467.372 367.798 464.898 403.365 464.898 403.365C464.898 403.365 477.886 410.335 498.371 407.641C516.719 405.225 524.86 394.462 524.23 395.81C521.453 386.646 517.947 377.72 513.746 369.116C523.41 345.438 523.147 333.929 520.57 326.3Z" fill="#455A64"/>
<path d="M488.224 408.285C491.616 408.326 495.008 408.126 498.371 407.685C515.108 405.488 523.513 396.322 524.216 395.766C521.475 386.62 517.972 377.721 513.746 369.16C518.637 357.167 520.98 348.308 521.771 341.485C520.98 346.463 513.629 365.733 504.009 371.503C504.009 371.503 509.427 372.352 514.069 378.721C518.71 385.091 514.903 406.923 488.224 408.285Z" fill="#37474F"/>
<path d="M481.21 321.556C473.215 322.566 466.889 324.236 463.39 331.806C457.533 344.736 451.075 355.352 446.419 360.345C441.44 365.675 421.028 374.988 416.43 374.299C411.832 373.611 407.249 368.267 404.877 369.628C402.505 370.99 406.898 376.13 406.605 377.286C406.312 378.443 397.98 377.828 394.041 375.046C390.102 372.264 388.638 377.975 393.734 383.978C398.83 389.982 408.377 390.421 418.817 388.371C429.257 386.321 448.864 380.801 456.888 374.226C466.567 366.26 469.862 360.228 473.976 353.082C488.839 337.736 481.21 321.556 481.21 321.556Z" fill="#FFA8A7"/>
</svg>
