<svg width="225" height="37" viewBox="0 0 225 37" fill="none" xmlns="http://www.w3.org/2000/svg">
<path d="M7.17188 36.7344C5.89453 36.2773 4.88672 35.5801 4.14844 34.6426C3.42188 33.7051 2.99414 32.5801 2.86523 31.2676C2.7832 30.4238 2.80664 29.5566 2.93555 28.666L3.62109 24.3418C3.72656 23.6387 3.74414 22.9941 3.67383 22.4082C3.4043 20.5332 2.2207 19.5488 0.123047 19.4551L0.28125 18.2949C1.66406 18.2246 2.77734 17.7793 3.62109 16.959C4.46484 16.1387 5.02734 14.9668 5.30859 13.4434L5.94141 9.3125C6.60938 4.97656 8.86523 2.18164 12.709 0.927734L12.8672 1.73633C11.2266 2.31055 9.89648 3.24805 8.87695 4.54883C7.85742 5.84961 7.20703 7.4082 6.92578 9.22461L6.31055 13.2148C5.8418 16.2852 4.3418 18.1777 1.81055 18.8926C2.6543 19.1621 3.31641 19.625 3.79688 20.2812C4.27734 20.9258 4.55273 21.6992 4.62305 22.6016C4.6582 23.2109 4.63477 23.791 4.55273 24.3418L3.88477 28.6484C3.75586 29.4688 3.73242 30.2539 3.81445 31.0039C4.04883 33.4062 5.31445 35.0586 7.61133 35.9609L7.17188 36.7344Z" fill="#3F3B3B"/>
<path d="M12.3574 19.2969C12.6855 17.3867 13.2598 15.6758 14.0801 14.1641C14.9121 12.6523 15.9141 11.5215 17.0859 10.7715C18.2578 10.0098 19.5352 9.62891 20.918 9.62891C22.2891 9.62891 23.4609 9.97461 24.4336 10.666C25.418 11.3457 26.1211 12.2773 26.543 13.4609L27.1758 9.98047H28.125L24.9785 28.332C24.5332 30.9453 23.5547 32.9844 22.043 34.4492C20.543 35.9258 18.7383 36.6641 16.6289 36.6641C14.2266 36.6641 12.3633 35.5859 11.0391 33.4297L11.7598 32.832C12.9668 34.7656 14.5723 35.7324 16.5762 35.7324C18.4043 35.7324 19.9746 35.1113 21.2871 33.8691C22.6113 32.6387 23.4961 30.8984 23.9414 28.6484L24.4688 25.9941C23.625 27.0605 22.6172 27.8867 21.4453 28.4727C20.2852 29.0586 19.0195 29.3516 17.6484 29.3516C16.4062 29.3516 15.3633 29.0469 14.5195 28.4375C13.6758 27.8164 13.0488 26.9141 12.6387 25.7305C12.2402 24.5352 12.0645 23.2227 12.1113 21.793C12.1348 21.125 12.2168 20.293 12.3574 19.2969ZM13.0605 21.5293C12.9082 23.6621 13.2246 25.3438 14.0098 26.5742C14.8066 27.793 16.0078 28.4023 17.6133 28.4023C19.125 28.4023 20.4902 28.0332 21.709 27.2949C22.9277 26.5449 23.9238 25.4961 24.6973 24.1484L26.2441 15.5176C26.0098 13.9121 25.4297 12.6875 24.5039 11.8438C23.5898 11 22.3945 10.5781 20.918 10.5781C19.418 10.5781 18.082 11.082 16.9102 12.0898C15.7383 13.0977 14.8301 14.4805 14.1855 16.2383C13.541 17.9961 13.166 19.7598 13.0605 21.5293Z" fill="#3F3B3B"/>
<path d="M32.0801 29H31.1309L34.4004 9.98047H35.3496L32.0801 29ZM34.9629 4.00391C34.998 3.76953 35.1211 3.55273 35.332 3.35352C35.5547 3.1543 35.7891 3.05469 36.0352 3.05469C36.3047 3.05469 36.5215 3.16016 36.6855 3.37109C36.8613 3.58203 36.9258 3.81641 36.8789 4.07422C36.8438 4.30859 36.7148 4.52539 36.4922 4.72461C36.2695 4.91211 36.0352 5.00586 35.7891 5.00586C35.5195 4.99414 35.3027 4.88867 35.1387 4.68945C34.9746 4.49023 34.916 4.26172 34.9629 4.00391Z" fill="#3F3B3B"/>
<path d="M44.543 4.84766L43.6641 9.98047H47.8301L47.707 10.9473H43.4883L41.0801 24.8691L41.0098 25.8359C40.9746 26.6328 41.1387 27.2598 41.502 27.7168C41.8652 28.1621 42.416 28.3906 43.1543 28.4023C43.4824 28.4023 44.1211 28.3496 45.0703 28.2441L45.1055 29.1406C44.5664 29.2812 43.9277 29.3516 43.1895 29.3516C41.1973 29.3516 40.1602 28.3262 40.0781 26.2754C40.0547 25.6777 40.0957 25.0684 40.2012 24.4473L42.5215 10.9473H39.1289L39.2695 9.98047H42.6973L43.5762 4.84766H44.543Z" fill="#3F3B3B"/>
<path d="M52.9277 14.4102C53.877 12.875 54.9961 11.6973 56.2852 10.877C57.5742 10.0449 58.9043 9.62891 60.2754 9.62891C61.7285 9.62891 62.8711 10.0039 63.7031 10.7539C64.5352 11.5039 65.0156 12.5879 65.1445 14.0059C65.2148 14.8965 65.168 15.8281 65.0039 16.8008L62.8945 29H61.9453L64.0547 16.8008C64.1953 15.9805 64.2539 15.1719 64.2305 14.375C64.1719 13.1328 63.8027 12.1836 63.123 11.5273C62.4551 10.8711 61.4941 10.5488 60.2402 10.5605C58.6348 10.584 57.0879 11.2109 55.5996 12.4414C54.123 13.6602 53.1211 15.1191 52.5938 16.8184L50.4844 29H49.5352L54.1934 2H55.1426L52.9277 14.4102Z" fill="#3F3B3B"/>
<path d="M81.1934 29L81.791 25.9238C80.959 27.0723 79.9512 27.9336 78.7676 28.5078C77.584 29.0703 76.2832 29.3516 74.8652 29.3516C73.3887 29.3516 72.2168 28.959 71.3496 28.1738C70.4941 27.3887 69.9961 26.2695 69.8555 24.8164C69.7734 23.8906 69.8145 22.9355 69.9785 21.9512L72.0352 9.98047H72.9844L70.8926 22.0918C70.7637 22.8887 70.7227 23.6621 70.7695 24.4121C70.8281 25.6777 71.209 26.6621 71.9121 27.3652C72.6152 28.0566 73.5879 28.4023 74.8301 28.4023C76.541 28.4023 78.082 27.9395 79.4531 27.0137C80.8242 26.0762 81.7266 24.8574 82.1602 23.3574L84.4629 9.98047H85.4297L82.1602 29H81.1934Z" fill="#3F3B3B"/>
<path d="M95.3438 29.3516C94.0312 29.3516 92.8652 29.0645 91.8457 28.4902C90.8379 27.916 90.0879 27.084 89.5957 25.9941L89.0508 29H88.1016L92.7598 2H93.709L91.6699 13.4434C92.5488 12.2129 93.5742 11.2695 94.7461 10.6133C95.9297 9.95703 97.2012 9.62891 98.5605 9.62891C99.791 9.62891 100.84 9.93359 101.707 10.543C102.574 11.1523 103.207 12.0488 103.605 13.2324C104.016 14.4043 104.197 15.7051 104.15 17.1348C104.115 17.8848 104.045 18.6055 103.939 19.2969L103.711 20.457C103.102 23.2109 102.059 25.3848 100.582 26.9785C99.1055 28.5605 97.3594 29.3516 95.3438 29.3516ZM102.955 19.2969L103.166 17.416C103.26 16.1387 103.148 14.9551 102.832 13.8652C102.527 12.7754 102.006 11.9551 101.268 11.4043C100.541 10.8535 99.6445 10.5781 98.5781 10.5781C97.0195 10.5781 95.5488 11.0469 94.166 11.9844C92.7949 12.9219 91.875 14.082 91.4062 15.4648L89.8418 24.1836C90.123 25.543 90.75 26.5859 91.7227 27.3125C92.707 28.0391 93.9141 28.4023 95.3438 28.4023C97.2305 28.4023 98.8301 27.6289 100.143 26.082C101.455 24.5234 102.369 22.3848 102.885 19.666L102.955 19.2969Z" fill="#3F3B3B"/>
<path d="M107.156 28.1035C107.191 27.8691 107.314 27.6523 107.525 27.4531C107.748 27.2539 107.982 27.1543 108.229 27.1543C108.498 27.1543 108.715 27.2598 108.879 27.4707C109.043 27.6816 109.107 27.916 109.072 28.1738C109.037 28.4082 108.908 28.625 108.686 28.8242C108.463 29.0117 108.229 29.1055 107.982 29.1055C107.713 29.0938 107.496 28.9883 107.332 28.7891C107.168 28.5898 107.109 28.3613 107.156 28.1035Z" fill="#3F3B3B"/>
<path d="M116.279 29H115.33L118.6 9.98047H119.549L116.279 29ZM119.162 4.00391C119.197 3.76953 119.32 3.55273 119.531 3.35352C119.754 3.1543 119.988 3.05469 120.234 3.05469C120.504 3.05469 120.721 3.16016 120.885 3.37109C121.061 3.58203 121.125 3.81641 121.078 4.07422C121.043 4.30859 120.914 4.52539 120.691 4.72461C120.469 4.91211 120.234 5.00586 119.988 5.00586C119.719 4.99414 119.502 4.88867 119.338 4.68945C119.174 4.49023 119.115 4.26172 119.162 4.00391Z" fill="#3F3B3B"/>
<path d="M125.877 14.4102C126.826 12.875 127.945 11.6973 129.234 10.877C130.523 10.0449 131.854 9.62891 133.225 9.62891C134.678 9.62891 135.82 10.0039 136.652 10.7539C137.484 11.5039 137.965 12.5879 138.094 14.0059C138.164 14.8965 138.117 15.8281 137.953 16.8008L135.844 29H134.895L137.004 16.8008C137.145 15.9805 137.203 15.1719 137.18 14.375C137.121 13.1328 136.752 12.1836 136.072 11.5273C135.404 10.8711 134.443 10.5488 133.189 10.5605C131.584 10.584 130.037 11.2109 128.549 12.4414C127.072 13.6602 126.07 15.1191 125.543 16.8184L123.434 29H122.484L125.754 9.98047H126.703L125.877 14.4102Z" fill="#3F3B3B"/>
<path d="M154.16 24.3418C154.582 22.1387 152.977 20.5742 149.344 19.6484L147.393 19.0859C144.697 18.207 143.514 16.6543 143.842 14.4277C144.053 12.9863 144.814 11.8262 146.127 10.9473C147.439 10.0684 148.963 9.62891 150.697 9.62891C152.607 9.62891 154.102 10.1211 155.18 11.1055C156.258 12.0898 156.715 13.4082 156.551 15.0605H155.602C155.742 13.7246 155.35 12.6465 154.424 11.8262C153.498 10.9941 152.262 10.5781 150.715 10.5781C149.215 10.5781 147.908 10.9238 146.795 11.6152C145.682 12.3066 145.014 13.2324 144.791 14.3926C144.439 16.2559 145.518 17.5801 148.025 18.3652L150.645 19.1211L151.523 19.4199C154.254 20.416 155.449 22.0625 155.109 24.3594C154.887 25.8711 154.102 27.084 152.754 27.998C151.406 28.9004 149.795 29.3516 147.92 29.3516C145.963 29.3516 144.398 28.877 143.227 27.9277C142.055 26.9668 141.551 25.7129 141.715 24.166H142.646C142.588 25.4785 143.021 26.5156 143.947 27.2773C144.885 28.0273 146.203 28.4023 147.902 28.4023C149.52 28.3672 150.914 27.9805 152.086 27.2422C153.258 26.4922 153.949 25.5254 154.16 24.3418Z" fill="#3F3B3B"/>
<path d="M160.506 29H159.557L162.826 9.98047H163.775L160.506 29ZM163.389 4.00391C163.424 3.76953 163.547 3.55273 163.758 3.35352C163.98 3.1543 164.215 3.05469 164.461 3.05469C164.73 3.05469 164.947 3.16016 165.111 3.37109C165.287 3.58203 165.352 3.81641 165.305 4.07422C165.27 4.30859 165.141 4.52539 164.918 4.72461C164.695 4.91211 164.461 5.00586 164.215 5.00586C163.945 4.99414 163.729 4.88867 163.564 4.68945C163.4 4.49023 163.342 4.26172 163.389 4.00391Z" fill="#3F3B3B"/>
<path d="M167.555 19.2969C167.883 17.3867 168.457 15.6758 169.277 14.1641C170.109 12.6523 171.111 11.5215 172.283 10.7715C173.455 10.0098 174.732 9.62891 176.115 9.62891C177.451 9.62891 178.611 9.96289 179.596 10.6309C180.592 11.2988 181.312 12.248 181.758 13.4785L183.762 2H184.711L180.053 29H179.104L179.701 25.959C178.857 27.0254 177.85 27.8574 176.678 28.4551C175.506 29.0527 174.229 29.3516 172.846 29.3516C171.604 29.3516 170.561 29.0469 169.717 28.4375C168.873 27.8164 168.246 26.9141 167.836 25.7305C167.438 24.5352 167.262 23.2227 167.309 21.793C167.332 21.125 167.414 20.293 167.555 19.2969ZM168.275 21.5293C168.182 22.8184 168.281 24.002 168.574 25.0801C168.867 26.1582 169.371 26.9844 170.086 27.5586C170.812 28.1211 171.721 28.4023 172.811 28.4023C174.334 28.4141 175.699 28.0508 176.906 27.3125C178.125 26.5742 179.121 25.5664 179.895 24.2891L181.477 15.377C181.23 13.8535 180.639 12.6758 179.701 11.8438C178.775 11 177.58 10.5781 176.115 10.5781C174.627 10.5781 173.303 11.0762 172.143 12.0723C170.982 13.0566 170.074 14.4277 169.418 16.1855C168.762 17.9434 168.381 19.7246 168.275 21.5293Z" fill="#3F3B3B"/>
<path d="M192.955 29.3516C191.432 29.3516 190.119 28.9238 189.018 28.0684C187.916 27.2129 187.119 26.0469 186.627 24.5703C186.146 23.082 186.023 21.5234 186.258 19.8945L186.398 19.0156C186.68 17.3047 187.277 15.7051 188.191 14.2168C189.117 12.7285 190.213 11.5918 191.479 10.8066C192.744 10.0215 194.098 9.62891 195.539 9.62891C197.461 9.62891 198.967 10.3379 200.057 11.7559C201.146 13.1738 201.609 14.9902 201.445 17.2051L201.393 17.75L201.234 18.8574H187.418L187.225 19.8945C187.061 20.8789 187.055 21.875 187.207 22.8828C187.465 24.5586 188.104 25.9004 189.123 26.9082C190.154 27.9043 191.426 28.4082 192.938 28.4199C195.129 28.4434 197.104 27.5762 198.861 25.8184L199.494 26.3105C197.76 28.3379 195.58 29.3516 192.955 29.3516ZM195.539 10.5781C193.734 10.5781 192.117 11.2578 190.688 12.6172C189.27 13.9648 188.215 15.7285 187.523 17.9082H200.355L200.408 17.6797C200.561 16.8359 200.572 15.9922 200.443 15.1484C200.232 13.7656 199.682 12.6582 198.791 11.8262C197.912 10.9941 196.828 10.5781 195.539 10.5781Z" fill="#3F3B3B"/>
<path d="M215.139 10.6484L213.996 10.5605C212.426 10.5605 210.967 11.1406 209.619 12.3008C208.271 13.4609 207.369 14.873 206.912 16.5371L204.75 29H203.801L207.07 9.98047H208.02L207.281 13.9355C208.078 12.5762 209.051 11.5215 210.199 10.7715C211.348 10.0098 212.625 9.62891 214.031 9.62891C214.477 9.62891 214.922 9.69922 215.367 9.83984L215.139 10.6484Z" fill="#3F3B3B"/>
<path d="M211.799 35.9082C215.221 34.6895 217.23 32.1582 217.828 28.3145L218.408 24.5527C218.877 21.5059 220.377 19.6074 222.908 18.8574C222.064 18.5996 221.402 18.1484 220.922 17.5039C220.441 16.8594 220.172 16.0859 220.113 15.1836C220.066 14.5859 220.084 14.0059 220.166 13.4434L220.834 9.10156C220.951 8.29297 220.986 7.50781 220.939 6.74609C220.74 4.26172 219.498 2.58008 217.213 1.70117L217.564 0.945312C218.865 1.42578 219.873 2.14062 220.588 3.08984C221.314 4.02734 221.742 5.15234 221.871 6.46484C221.941 7.36719 221.906 8.28125 221.766 9.20703L221.098 13.4434C220.992 14.1465 220.975 14.7852 221.045 15.3594C221.15 16.25 221.508 16.9531 222.117 17.4688C222.738 17.9727 223.564 18.248 224.596 18.2949L224.438 19.4551C223.02 19.5254 221.883 20.0059 221.027 20.8965C220.172 21.7754 219.627 22.959 219.393 24.4473L218.777 28.4375C218.109 32.7383 215.859 35.5098 212.027 36.752L211.799 35.9082Z" fill="#3F3B3B"/>
</svg>
